<?xml version="1.0" encoding="utf-8"?>
<svg version="1.1" id="svg1" width="793.33331" height="1122.6667" viewBox="0 0 793.33331 1122.6667" xmlns="http://www.w3.org/2000/svg">
  <g id="g1">
    <path id="path1" d="M 41.900851,62.037398 V 51.678022 h -8.078125 v 10.359376 h -4.46875 V 38.240522 h 4.46875 v 9.5625 h 8.078125 v -9.5625 h 4.484374 V 62.037398 Z M 61.674289,38.474897 c 0,0.40625 -0.07421,0.789062 -0.218751,1.140625 -0.148437,0.34375 -0.351562,0.652343 -0.609374,0.921874 -0.26172,0.26172 -0.570313,0.468751 -0.921876,0.625001 -0.343749,0.148438 -0.726562,0.21875 -1.140625,0.21875 -0.40625,0 -0.792969,-0.07031 -1.15625,-0.21875 -0.355469,-0.15625 -0.664062,-0.363281 -0.921874,-0.625001 -0.26172,-0.269531 -0.464844,-0.578124 -0.609376,-0.921874 -0.148437,-0.351563 -0.218749,-0.734375 -0.218749,-1.140625 0,-0.394531 0.07031,-0.769531 0.218749,-1.124999 0.144532,-0.351564 0.347656,-0.660157 0.609376,-0.921876 0.257812,-0.269531 0.566405,-0.476562 0.921874,-0.625 0.363281,-0.15625 0.75,-0.234375 1.15625,-0.234375 0.414063,0 0.796876,0.07812 1.140625,0.234375 0.351563,0.148438 0.660156,0.355469 0.921876,0.625 0.257812,0.261719 0.460937,0.570312 0.609374,0.921876 0.144532,0.355468 0.218751,0.730468 0.218751,1.124999 z m -4.90625,8.531251 h -5.21875 v -3.46875 h 9.765624 v 15.046875 h 5.328126 v 3.453125 H 50.908664 v -3.453125 h 5.859375 z m 26.144531,15.03125 -0.109375,-2.734375 c -0.38672,0.480468 -0.789062,0.914062 -1.203125,1.296875 -0.40625,0.386718 -0.851564,0.71875 -1.328126,1 -0.468749,0.273437 -0.976562,0.476562 -1.515625,0.625 -0.542969,0.15625 -1.140625,0.234375 -1.796875,0.234375 -1.093749,0 -2.070313,-0.21875 -2.921875,-0.65625 -0.843749,-0.4375 -1.554687,-1.054688 -2.124999,-1.859375 -0.57422,-0.8125 -1.01172,-1.789063 -1.312501,-2.9375 -0.304686,-1.15625 -0.453125,-2.445313 -0.453125,-3.875001 0,-1.695312 0.238281,-3.164062 0.71875,-4.40625 0.476563,-1.249999 1.140625,-2.28125 1.984376,-3.09375 0.851562,-0.820312 1.859375,-1.429688 3.015625,-1.828124 1.164062,-0.394532 2.437499,-0.593751 3.8125,-0.593751 0.45703,0 0.921874,0.03124 1.390625,0.09375 0.46875,0.0625 0.882813,0.140624 1.249999,0.234375 v -7.218752 h 4.437501 v 25.718756 z m -8.109376,-9.109376 c 0,1.023438 0.0664,1.898438 0.203125,2.625001 0.132814,0.71875 0.335938,1.3125 0.609375,1.78125 0.28125,0.460937 0.617188,0.792968 1.015626,0.999999 0.406249,0.210938 0.863281,0.312501 1.374999,0.312501 0.75,0 1.460939,-0.300782 2.140625,-0.906251 0.675781,-0.601562 1.398438,-1.4375 2.171875,-2.5 v -8.078125 c -0.355468,-0.132809 -0.792969,-0.242188 -1.312499,-0.328125 -0.511719,-0.08203 -1.027344,-0.125004 -1.546876,-0.125004 -0.71875,0 -1.367187,0.148438 -1.937499,0.4375 -0.562501,0.292968 -1.046876,0.703125 -1.453126,1.234375 -0.406249,0.53125 -0.718749,1.183594 -0.9375,1.953125 -0.218749,0.773438 -0.328125,1.636719 -0.328125,2.59375 z m 33.078126,-1.5625 c 0,0.304688 -0.0117,0.699219 -0.0312,1.1875 -0.0234,0.492188 -0.0469,0.945313 -0.0781,1.359375 H 95.615694 c 0,0.8125 0.117186,1.53125 0.359376,2.156251 0.25,0.617187 0.601562,1.136718 1.062499,1.5625 0.457032,0.417968 1.003906,0.734375 1.640625,0.953125 0.632813,0.218749 1.335936,0.328125 2.109376,0.328125 0.90625,0 1.86719,-0.06641 2.89062,-0.203125 1.01954,-0.144532 2.08204,-0.375001 3.1875,-0.6875 v 3.53125 c -0.46875,0.125 -0.98437,0.246093 -1.54687,0.359375 -0.55469,0.105468 -1.12109,0.195312 -1.70313,0.28125 -0.58593,0.09375 -1.17187,0.160156 -1.76562,0.203125 -0.59375,0.03906 -1.17188,0.0625 -1.73438,0.0625 -1.406245,0 -2.667965,-0.199219 -3.781246,-0.59375 -1.117187,-0.40625 -2.062499,-1 -2.843749,-1.78125 -0.773437,-0.78125 -1.367188,-1.750001 -1.78125,-2.90625 -0.406251,-1.15625 -0.609376,-2.488282 -0.609376,-4.000001 0,-1.507812 0.203125,-2.878906 0.609376,-4.109375 0.414062,-1.226562 0.999999,-2.281249 1.749999,-3.15625 0.750001,-0.882812 1.660157,-1.566406 2.734375,-2.046875 1.082031,-0.476562 2.281251,-0.71875 3.59375,-0.71875 1.312501,0 2.472661,0.203125 3.484371,0.609376 1.00782,0.406249 1.85157,0.976561 2.53126,1.703124 0.67578,0.730469 1.1914,1.601563 1.54687,2.609375 0.35156,1 0.53125,2.101563 0.53125,3.296875 z m -4.51563,-0.625 c 0.008,-0.726562 -0.0859,-1.363281 -0.28125,-1.90625 -0.1875,-0.539062 -0.44921,-0.988281 -0.78124,-1.343749 -0.33594,-0.351564 -0.72657,-0.613282 -1.17188,-0.781251 -0.4375,-0.164062 -0.91406,-0.25 -1.421876,-0.25 -1.124999,0 -2.046875,0.375 -2.765624,1.125 -0.710938,0.742188 -1.132813,1.792969 -1.265625,3.15625 z m 20.48829,11.296876 -0.10938,-2.421875 c -0.39844,0.417968 -0.80859,0.796875 -1.23437,1.140625 -0.41797,0.34375 -0.88282,0.648437 -1.39063,0.90625 -0.51172,0.25 -1.07031,0.441406 -1.67187,0.578125 -0.59375,0.144531 -1.25,0.21875 -1.96875,0.21875 -0.94922,0 -1.78125,-0.140625 -2.5,-0.421875 -0.71094,-0.28125 -1.3086,-0.664063 -1.79688,-1.15625 -0.48047,-0.5 -0.84375,-1.097657 -1.09375,-1.796875 -0.25,-0.707032 -0.375,-1.488282 -0.375,-2.34375 0,-0.875001 0.17969,-1.679688 0.54688,-2.421876 0.375,-0.738281 0.9414,-1.375 1.70312,-1.90625 0.75781,-0.539062 1.70313,-0.960937 2.82813,-1.265625 1.13281,-0.300781 2.46875,-0.453125 4,-0.453125 h 2.42187 v -1.109375 c 0,-0.46875 -0.0703,-0.894532 -0.20312,-1.28125 -0.13672,-0.382813 -0.35547,-0.707031 -0.65625,-0.96875 -0.29297,-0.269531 -0.67969,-0.476562 -1.15625,-0.625 -0.46875,-0.144531 -1.04688,-0.218749 -1.73438,-0.218749 -1.09375,0 -2.17187,0.125004 -3.23437,0.374999 -1.0625,0.25 -2.08985,0.601563 -3.07813,1.046875 v -3.546875 c 0.88281,-0.351562 1.90625,-0.644532 3.0625,-0.875 1.15625,-0.226562 2.35938,-0.34375 3.60938,-0.34375 1.375,0 2.55078,0.132809 3.53125,0.390626 0.98828,0.261718 1.80078,0.652343 2.4375,1.171874 0.63281,0.523437 1.10156,1.171875 1.40625,1.953125 0.30078,0.78125 0.45312,1.695313 0.45312,2.734375 v 12.640626 z m -0.64063,-8.171876 h -2.71875 c -0.75,0 -1.38672,0.07422 -1.90625,0.21875 -0.52344,0.148438 -0.94922,0.351563 -1.28125,0.609375 -0.32422,0.25 -0.5625,0.542969 -0.71875,0.875 -0.14844,0.335938 -0.21875,0.6875 -0.21875,1.0625 0,0.750001 0.23828,1.324219 0.71875,1.718751 0.48828,0.398437 1.15625,0.59375 2,0.59375 0.61328,0 1.25391,-0.222657 1.92188,-0.671875 0.66406,-0.445313 1.39843,-1.09375 2.20312,-1.937501 z m 24.86719,8.171876 h -4.92188 l -1.96875,-5.859376 -0.60937,-2.046875 -0.59375,2.09375 -1.89063,5.812501 h -4.95312 l -2.625,-18.5 h 4.21875 l 1.34375,10.453124 0.29687,2.859375 0.75,-2.562499 1.85938,-5.625001 h 3.375 l 1.98437,5.578125 0.85938,2.640626 0.34375,-2.921876 1.10937,-10.421874 h 4.03125 z m 16.91015,0 -0.10933,-2.421875 c -0.39844,0.417968 -0.8086,0.796875 -1.23437,1.140625 -0.41798,0.34375 -0.88282,0.648437 -1.39063,0.90625 -0.51172,0.25 -1.07032,0.441406 -1.67188,0.578125 -0.59375,0.144531 -1.25,0.21875 -1.96875,0.21875 -0.94921,0 -1.78125,-0.140625 -2.5,-0.421875 -0.71097,-0.28125 -1.30863,-0.664063 -1.79691,-1.15625 -0.48047,-0.5 -0.84375,-1.097657 -1.09375,-1.796875 -0.25,-0.707032 -0.375,-1.488282 -0.375,-2.34375 0,-0.875001 0.17969,-1.679688 0.54687,-2.421876 0.375,-0.738281 0.94141,-1.375 1.70313,-1.90625 0.75781,-0.539062 1.70312,-0.960937 2.82812,-1.265625 1.13282,-0.300781 2.46875,-0.453125 4.00001,-0.453125 h 2.42187 v -1.109375 c 0,-0.46875 -0.0703,-0.894532 -0.20312,-1.28125 -0.13672,-0.382813 -0.35547,-0.707031 -0.65626,-0.96875 -0.29297,-0.269531 -0.67968,-0.476562 -1.15625,-0.625 -0.46875,-0.144531 -1.04687,-0.218749 -1.73437,-0.218749 -1.09375,0 -2.17188,0.125004 -3.23438,0.374999 -1.0625,0.25 -2.08984,0.601563 -3.07812,1.046875 v -3.546875 c 0.88281,-0.351562 1.90625,-0.644532 3.0625,-0.875 1.15625,-0.226562 2.35937,-0.34375 3.60937,-0.34375 1.375,0 2.55079,0.132809 3.53125,0.390626 0.98828,0.261718 1.80079,0.652343 2.43751,1.171874 0.63281,0.523437 1.10156,1.171875 1.40624,1.953125 0.30078,0.78125 0.45313,1.695313 0.45313,2.734375 v 12.640626 z m -0.64062,-8.171876 h -2.71875 c -0.75,0 -1.38672,0.07422 -1.90625,0.21875 -0.52344,0.148438 -0.94922,0.351563 -1.28125,0.609375 -0.32422,0.25 -0.5625,0.542969 -0.71875,0.875 -0.14844,0.335938 -0.21875,0.6875 -0.21875,1.0625 0,0.750001 0.23828,1.324219 0.71875,1.718751 0.48828,0.398437 1.15625,0.59375 2,0.59375 0.61328,0 1.2539,-0.222657 1.92188,-0.671875 0.66406,-0.445313 1.39844,-1.09375 2.20312,-1.937501 z m 20.64063,6.156251 c -0.63672,1.59375 -1.30469,2.992187 -2,4.203125 -0.69923,1.207031 -1.46876,2.210937 -2.31251,3.015625 -0.83593,0.8125 -1.76562,1.421875 -2.79688,1.828125 -1.02342,0.40625 -2.16795,0.609375 -3.43749,0.609375 -0.30469,0 -0.63672,-0.01563 -1,-0.04687 -0.35546,-0.03125 -0.71876,-0.07422 -1.09376,-0.125001 v -3.765624 c 0.14454,0.01953 0.31251,0.04687 0.5,0.07812 0.18751,0.03125 0.38282,0.05078 0.59376,0.0625 0.20703,0.01953 0.41406,0.03516 0.625,0.04687 0.20703,0.0078 0.40626,0.01563 0.59375,0.01563 0.50781,0 0.98437,-0.101562 1.42188,-0.296875 0.43749,-0.1875 0.83593,-0.453126 1.20312,-0.796876 0.375,-0.34375 0.71093,-0.757812 1.01562,-1.234375 0.30079,-0.480468 0.56642,-1.007812 0.79688,-1.578125 l -7.32813,-18.499998 h 4.95313 l 3.82812,10.484374 1.15626,3.390626 1.125,-3.234376 3.87499,-10.640624 h 4.76563 z m 46.05859,-5.171876 c 0,1.292969 -0.24218,2.421875 -0.71876,3.390626 -0.48046,0.960937 -1.15233,1.75 -2.01562,2.375 -0.86719,0.625 -1.89062,1.089843 -3.07812,1.390625 -1.18751,0.300781 -2.48437,0.453125 -3.89063,0.453125 -1.25,0 -2.46093,-0.07422 -3.625,-0.21875 -1.15625,-0.148438 -2.30859,-0.390625 -3.45313,-0.734375 v -4.421875 c 0.56251,0.199218 1.14454,0.382812 1.75,0.546875 0.60158,0.167968 1.21095,0.320312 1.82813,0.453124 0.61328,0.125 1.22266,0.226563 1.82812,0.296875 0.60158,0.07422 1.19142,0.109375 1.76563,0.109375 0.84376,0 1.56251,-0.07031 2.15625,-0.21875 0.60156,-0.144531 1.09375,-0.34375 1.46875,-0.59375 0.375,-0.257813 0.64453,-0.566406 0.81251,-0.921875 0.16406,-0.351563 0.24999,-0.738281 0.24999,-1.15625 0,-0.582031 -0.16797,-1.070313 -0.49999,-1.46875 -0.33594,-0.394532 -0.77344,-0.742188 -1.31251,-1.046875 -0.54296,-0.300781 -1.16405,-0.570313 -1.85937,-0.8125 -0.69922,-0.25 -1.41407,-0.515625 -2.14063,-0.796875 -0.71875,-0.28125 -1.42968,-0.59375 -2.125,-0.9375 -0.69921,-0.351563 -1.32421,-0.789063 -1.875,-1.3125 -0.54297,-0.519532 -0.98046,-1.140626 -1.31249,-1.859376 -0.33595,-0.726563 -0.5,-1.601562 -0.5,-2.625001 0,-0.92578 0.16405,-1.804687 0.5,-2.640624 0.34375,-0.843751 0.87891,-1.578124 1.60937,-2.203124 0.72656,-0.625 1.66015,-1.117189 2.79687,-1.484376 1.14453,-0.374999 2.52344,-0.5625 4.14062,-0.5625 0.46876,0 0.95704,0.02344 1.46876,0.0625 0.51954,0.04297 1.03124,0.101564 1.53125,0.171875 0.5078,0.0625 1,0.140624 1.46875,0.234374 0.46875,0.08594 0.89453,0.171875 1.28125,0.265626 v 4.109374 c -0.38672,-0.14453 -0.8125,-0.28125 -1.28125,-0.406249 -0.46095,-0.125005 -0.9336,-0.226563 -1.42188,-0.312501 -0.49219,-0.09375 -0.98437,-0.164062 -1.48437,-0.21875 -0.5,-0.05078 -0.97656,-0.07813 -1.42188,-0.07813 -0.78124,0 -1.44921,0.07031 -2,0.203126 -0.54296,0.125004 -0.99219,0.304687 -1.34375,0.531249 -0.35546,0.218751 -0.60937,0.496094 -0.76562,0.828125 -0.15626,0.32422 -0.23438,0.683594 -0.23438,1.078126 0,0.5 0.16407,0.933594 0.5,1.296875 0.33203,0.355468 0.77344,0.679687 1.32812,0.96875 0.55079,0.281249 1.17579,0.546874 1.875,0.796874 0.69532,0.242188 1.41016,0.507813 2.14063,0.796875 0.73828,0.281251 1.45704,0.60547 2.15625,0.968751 0.69532,0.367188 1.32032,0.808594 1.875,1.328125 0.55079,0.523438 0.99219,1.140625 1.32813,1.859375 0.33203,0.710938 0.5,1.546875 0.5,2.515625 z m 19.70704,7.000001 c -0.8047,0.1875 -1.60939,0.332031 -2.42188,0.4375 -0.81251,0.113281 -1.58594,0.171875 -2.31251,0.171875 -1.21093,0 -2.25781,-0.132813 -3.14063,-0.390625 -0.87499,-0.25 -1.60546,-0.632813 -2.18749,-1.15625 -0.57422,-0.519532 -0.99609,-1.179688 -1.26562,-1.984376 -0.27344,-0.812499 -0.40626,-1.773437 -0.40626,-2.890625 v -9.031249 h -4.96874 v -3.46875 h 4.96874 v -4.734377 l 4.54688,-1.171874 v 5.906251 h 7.18751 v 3.46875 h -7.18751 v 8.703124 c 0,1.054688 0.23828,1.851563 0.71875,2.390626 0.48828,0.542968 1.30078,0.8125 2.4375,0.8125 0.72656,0 1.4375,-0.0625 2.125,-0.1875 0.69531,-0.125001 1.33203,-0.265626 1.90626,-0.421875 z m 9.64062,-18.3125 v 12.0625 c 0,0.999999 0.18749,1.761718 0.56249,2.28125 0.375,0.511718 0.94141,0.765625 1.70313,0.765625 0.73828,0 1.45312,-0.300782 2.14063,-0.906251 0.68749,-0.613281 1.41015,-1.445312 2.17187,-2.5 V 43.537398 h 4.4375 v 18.5 h -3.82813 l -0.10937,-2.734375 c -0.39843,0.480468 -0.79296,0.914062 -1.1875,1.296875 -0.39844,0.386718 -0.82813,0.71875 -1.29688,1 -0.46874,0.273437 -0.98046,0.476562 -1.53125,0.625 -0.55468,0.15625 -1.16405,0.234375 -1.82812,0.234375 -0.94923,0 -1.77735,-0.15625 -2.48437,-0.46875 -0.71095,-0.3125 -1.30469,-0.75 -1.78125,-1.3125 -0.46875,-0.570313 -0.82423,-1.253907 -1.06251,-2.046876 -0.23047,-0.800781 -0.34375,-1.691406 -0.34375,-2.671875 V 43.537398 Z m 27.70703,18.5 -0.10938,-2.734375 c -0.38672,0.480468 -0.78906,0.914062 -1.20313,1.296875 -0.40624,0.386718 -0.85156,0.71875 -1.32812,1 -0.46875,0.273437 -0.97656,0.476562 -1.51562,0.625 -0.54298,0.15625 -1.14063,0.234375 -1.79688,0.234375 -1.09375,0 -2.07031,-0.21875 -2.92187,-0.65625 -0.84376,-0.4375 -1.55469,-1.054688 -2.125,-1.859375 -0.57423,-0.8125 -1.01172,-1.789063 -1.3125,-2.9375 -0.3047,-1.15625 -0.45312,-2.445313 -0.45312,-3.875001 0,-1.695312 0.23828,-3.164062 0.71874,-4.40625 0.47656,-1.249999 1.14063,-2.28125 1.98437,-3.09375 0.85156,-0.820312 1.85938,-1.429688 3.01563,-1.828124 1.16407,-0.394532 2.43751,-0.593751 3.8125,-0.593751 0.45703,0 0.92187,0.03124 1.39063,0.09375 0.46875,0.0625 0.88281,0.140624 1.25,0.234375 v -7.218752 h 4.43749 v 25.718756 z m -8.10937,-9.109376 c 0,1.023438 0.0664,1.898438 0.20312,2.625001 0.1328,0.71875 0.33593,1.3125 0.60937,1.78125 0.28125,0.460937 0.61719,0.792968 1.01563,0.999999 0.40625,0.210938 0.86328,0.312501 1.375,0.312501 0.75,0 1.46093,-0.300782 2.14062,-0.906251 0.67579,-0.601562 1.39844,-1.4375 2.17188,-2.5 v -8.078125 c -0.35548,-0.132809 -0.79297,-0.242188 -1.31251,-0.328125 -0.51172,-0.08203 -1.02734,-0.125004 -1.54688,-0.125004 -0.71874,0 -1.36718,0.148438 -1.93749,0.4375 -0.5625,0.292968 -1.04688,0.703125 -1.45313,1.234375 -0.40624,0.53125 -0.71875,1.183594 -0.93749,1.953125 -0.21875,0.773438 -0.32812,1.636719 -0.32812,2.59375 z m 28.0078,-14.453125 c 0,0.40625 -0.0743,0.789062 -0.21875,1.140625 -0.14844,0.34375 -0.35156,0.652343 -0.60937,0.921874 -0.26172,0.26172 -0.57032,0.468751 -0.92188,0.625001 -0.34375,0.148438 -0.72656,0.21875 -1.14063,0.21875 -0.40624,0 -0.79296,-0.07031 -1.15624,-0.21875 -0.35548,-0.15625 -0.66406,-0.363281 -0.92188,-0.625001 -0.26172,-0.269531 -0.46484,-0.578124 -0.60937,-0.921874 -0.14844,-0.351563 -0.21875,-0.734375 -0.21875,-1.140625 0,-0.394531 0.0703,-0.769531 0.21875,-1.124999 0.14453,-0.351564 0.34765,-0.660157 0.60937,-0.921876 0.25782,-0.269531 0.5664,-0.476562 0.92188,-0.625 0.36328,-0.15625 0.75,-0.234375 1.15624,-0.234375 0.41407,0 0.79688,0.07812 1.14063,0.234375 0.35156,0.148438 0.66016,0.355469 0.92188,0.625 0.25781,0.261719 0.46093,0.570312 0.60937,0.921876 0.14454,0.355468 0.21875,0.730468 0.21875,1.124999 z m -4.90625,8.531251 h -5.21875 v -3.46875 h 9.76563 v 15.046875 h 5.32813 v 3.453125 h -15.73438 v -3.453125 h 5.85937 z m 31.15625,5.640624 c 0,1.460938 -0.21093,2.792969 -0.625,4 -0.40625,1.199219 -1,2.230469 -1.78125,3.093751 -0.77344,0.867187 -1.71875,1.539062 -2.84375,2.015625 -1.125,0.46875 -2.41406,0.703125 -3.85937,0.703125 -1.375,0 -2.60548,-0.199219 -3.6875,-0.59375 -1.07422,-0.40625 -1.98438,-1.003907 -2.73438,-1.796875 -0.75,-0.800782 -1.32813,-1.796875 -1.73437,-2.984375 -0.39844,-1.195313 -0.59376,-2.593751 -0.59376,-4.187501 0,-1.46875 0.20704,-2.800781 0.625,-4 0.41407,-1.195313 1.01563,-2.222656 1.79688,-3.078125 0.78125,-0.851563 1.73437,-1.507812 2.85937,-1.96875 1.13282,-0.46875 2.41016,-0.703125 3.82814,-0.703125 1.38281,0 2.61327,0.203125 3.68749,0.609376 1.08204,0.406249 2.00001,1.011718 2.75001,1.812499 0.75781,0.804688 1.33203,1.796875 1.71875,2.984375 0.39453,1.179688 0.59374,2.542969 0.59374,4.09375 z m -4.60937,0.109375 c 0,-1.914063 -0.36719,-3.351563 -1.09375,-4.3125 -0.71876,-0.968749 -1.78125,-1.453124 -3.1875,-1.453124 -0.78125,0 -1.44532,0.152343 -1.98437,0.453124 -0.54298,0.304688 -0.99219,0.71875 -1.34376,1.25 -0.35547,0.523437 -0.61719,1.136719 -0.78124,1.84375 -0.15626,0.699219 -0.23438,1.449219 -0.23438,2.25 0,1.929687 0.38282,3.382812 1.15624,4.359375 0.78126,0.980469 1.84376,1.46875 3.18751,1.46875 0.73828,0 1.3789,-0.144531 1.92188,-0.4375 0.55077,-0.300781 0.99218,-0.710938 1.32812,-1.234375 0.34374,-0.53125 0.59765,-1.15625 0.76562,-1.875 0.17579,-0.71875 0.26563,-1.488281 0.26563,-2.3125 z m 0,0" style="fill:#eeeeee;fill-opacity:1;fill-rule:nonzero;stroke:none;stroke-width:1.33371" aria-label="Hideaway Studio"/>
  </g>
</svg>